<mxfile host="app.diagrams.net" agent="Mozilla/5.0 (Windows NT 10.0; Win64; x64) AppleWebKit/537.36 (KHTML, like Gecko) Chrome/133.0.0.0 Safari/537.36" version="26.1.0">
  <diagram name="Page-1" id="svoMK272RDXkM1hPB23V">
    <mxGraphModel dx="1909" dy="1035" grid="1" gridSize="10" guides="1" tooltips="1" connect="1" arrows="1" fold="1" page="1" pageScale="1" pageWidth="850" pageHeight="1100" math="0" shadow="0">
      <root>
        <mxCell id="0" />
        <mxCell id="1" parent="0" />
        <mxCell id="wjT3vvSxI-A0SZft3mg_-3" value="" style="edgeStyle=orthogonalEdgeStyle;rounded=0;orthogonalLoop=1;jettySize=auto;html=1;" edge="1" parent="1" source="wjT3vvSxI-A0SZft3mg_-1" target="wjT3vvSxI-A0SZft3mg_-2">
          <mxGeometry relative="1" as="geometry" />
        </mxCell>
        <mxCell id="wjT3vvSxI-A0SZft3mg_-1" value="Inicio" style="ellipse;whiteSpace=wrap;html=1;" vertex="1" parent="1">
          <mxGeometry x="365" y="30" width="120" height="80" as="geometry" />
        </mxCell>
        <mxCell id="wjT3vvSxI-A0SZft3mg_-6" value="" style="edgeStyle=orthogonalEdgeStyle;rounded=0;orthogonalLoop=1;jettySize=auto;html=1;" edge="1" parent="1" source="wjT3vvSxI-A0SZft3mg_-2" target="wjT3vvSxI-A0SZft3mg_-5">
          <mxGeometry relative="1" as="geometry" />
        </mxCell>
        <mxCell id="wjT3vvSxI-A0SZft3mg_-2" value="Obtener contacto de la tienda de consolas" style="rounded=0;whiteSpace=wrap;html=1;" vertex="1" parent="1">
          <mxGeometry x="365" y="130" width="120" height="60" as="geometry" />
        </mxCell>
        <mxCell id="wjT3vvSxI-A0SZft3mg_-10" value="" style="edgeStyle=orthogonalEdgeStyle;rounded=0;orthogonalLoop=1;jettySize=auto;html=1;" edge="1" parent="1" source="wjT3vvSxI-A0SZft3mg_-5" target="wjT3vvSxI-A0SZft3mg_-7">
          <mxGeometry relative="1" as="geometry" />
        </mxCell>
        <mxCell id="wjT3vvSxI-A0SZft3mg_-5" value="Confirmar disponibilidad" style="rhombus;whiteSpace=wrap;html=1;" vertex="1" parent="1">
          <mxGeometry x="315" y="210" width="220" height="140" as="geometry" />
        </mxCell>
        <mxCell id="wjT3vvSxI-A0SZft3mg_-17" value="" style="edgeStyle=orthogonalEdgeStyle;rounded=0;orthogonalLoop=1;jettySize=auto;html=1;" edge="1" parent="1" source="wjT3vvSxI-A0SZft3mg_-7" target="wjT3vvSxI-A0SZft3mg_-16">
          <mxGeometry relative="1" as="geometry" />
        </mxCell>
        <mxCell id="wjT3vvSxI-A0SZft3mg_-7" value="Ir a la tienda" style="rounded=0;whiteSpace=wrap;html=1;" vertex="1" parent="1">
          <mxGeometry x="365" y="390" width="120" height="60" as="geometry" />
        </mxCell>
        <mxCell id="wjT3vvSxI-A0SZft3mg_-11" value="SI" style="text;html=1;align=center;verticalAlign=middle;resizable=0;points=[];autosize=1;strokeColor=none;fillColor=none;" vertex="1" parent="1">
          <mxGeometry x="425" y="348" width="30" height="30" as="geometry" />
        </mxCell>
        <mxCell id="wjT3vvSxI-A0SZft3mg_-12" value="" style="endArrow=classic;html=1;rounded=0;entryX=1;entryY=0.5;entryDx=0;entryDy=0;" edge="1" parent="1" target="wjT3vvSxI-A0SZft3mg_-2">
          <mxGeometry width="50" height="50" relative="1" as="geometry">
            <mxPoint x="560" y="160" as="sourcePoint" />
            <mxPoint x="450" y="270" as="targetPoint" />
          </mxGeometry>
        </mxCell>
        <mxCell id="wjT3vvSxI-A0SZft3mg_-13" value="" style="endArrow=none;html=1;rounded=0;" edge="1" parent="1">
          <mxGeometry width="50" height="50" relative="1" as="geometry">
            <mxPoint x="560" y="280" as="sourcePoint" />
            <mxPoint x="560" y="160" as="targetPoint" />
          </mxGeometry>
        </mxCell>
        <mxCell id="wjT3vvSxI-A0SZft3mg_-14" value="" style="endArrow=none;html=1;rounded=0;exitX=1;exitY=0.5;exitDx=0;exitDy=0;" edge="1" parent="1" source="wjT3vvSxI-A0SZft3mg_-5">
          <mxGeometry width="50" height="50" relative="1" as="geometry">
            <mxPoint x="540" y="280" as="sourcePoint" />
            <mxPoint x="560" y="280" as="targetPoint" />
          </mxGeometry>
        </mxCell>
        <mxCell id="wjT3vvSxI-A0SZft3mg_-15" value="NO" style="text;html=1;align=center;verticalAlign=middle;resizable=0;points=[];autosize=1;strokeColor=none;fillColor=none;" vertex="1" parent="1">
          <mxGeometry x="550" y="208" width="40" height="30" as="geometry" />
        </mxCell>
        <mxCell id="wjT3vvSxI-A0SZft3mg_-36" value="" style="edgeStyle=orthogonalEdgeStyle;rounded=0;orthogonalLoop=1;jettySize=auto;html=1;" edge="1" parent="1" source="wjT3vvSxI-A0SZft3mg_-16" target="wjT3vvSxI-A0SZft3mg_-27">
          <mxGeometry relative="1" as="geometry" />
        </mxCell>
        <mxCell id="wjT3vvSxI-A0SZft3mg_-16" value="comprar la consola" style="rounded=0;whiteSpace=wrap;html=1;" vertex="1" parent="1">
          <mxGeometry x="365" y="470" width="120" height="60" as="geometry" />
        </mxCell>
        <mxCell id="wjT3vvSxI-A0SZft3mg_-24" value="" style="edgeStyle=orthogonalEdgeStyle;rounded=0;orthogonalLoop=1;jettySize=auto;html=1;" edge="1" parent="1" source="wjT3vvSxI-A0SZft3mg_-25" target="wjT3vvSxI-A0SZft3mg_-27">
          <mxGeometry relative="1" as="geometry" />
        </mxCell>
        <mxCell id="wjT3vvSxI-A0SZft3mg_-25" value="Obtener contacto de la tienda de sweaters" style="rounded=0;whiteSpace=wrap;html=1;" vertex="1" parent="1">
          <mxGeometry x="365" y="550" width="120" height="60" as="geometry" />
        </mxCell>
        <mxCell id="wjT3vvSxI-A0SZft3mg_-26" value="" style="edgeStyle=orthogonalEdgeStyle;rounded=0;orthogonalLoop=1;jettySize=auto;html=1;" edge="1" parent="1" source="wjT3vvSxI-A0SZft3mg_-27" target="wjT3vvSxI-A0SZft3mg_-29">
          <mxGeometry relative="1" as="geometry" />
        </mxCell>
        <mxCell id="wjT3vvSxI-A0SZft3mg_-27" value="Confirmar disponibilidad de talla" style="rhombus;whiteSpace=wrap;html=1;" vertex="1" parent="1">
          <mxGeometry x="315" y="630" width="220" height="140" as="geometry" />
        </mxCell>
        <mxCell id="wjT3vvSxI-A0SZft3mg_-28" value="" style="edgeStyle=orthogonalEdgeStyle;rounded=0;orthogonalLoop=1;jettySize=auto;html=1;" edge="1" parent="1" source="wjT3vvSxI-A0SZft3mg_-29" target="wjT3vvSxI-A0SZft3mg_-35">
          <mxGeometry relative="1" as="geometry" />
        </mxCell>
        <mxCell id="wjT3vvSxI-A0SZft3mg_-29" value="Ir a la tienda" style="rounded=0;whiteSpace=wrap;html=1;" vertex="1" parent="1">
          <mxGeometry x="365" y="810" width="120" height="60" as="geometry" />
        </mxCell>
        <mxCell id="wjT3vvSxI-A0SZft3mg_-30" value="SI" style="text;html=1;align=center;verticalAlign=middle;resizable=0;points=[];autosize=1;strokeColor=none;fillColor=none;" vertex="1" parent="1">
          <mxGeometry x="425" y="768" width="30" height="30" as="geometry" />
        </mxCell>
        <mxCell id="wjT3vvSxI-A0SZft3mg_-31" value="" style="endArrow=classic;html=1;rounded=0;entryX=1;entryY=0.5;entryDx=0;entryDy=0;" edge="1" parent="1" target="wjT3vvSxI-A0SZft3mg_-25">
          <mxGeometry width="50" height="50" relative="1" as="geometry">
            <mxPoint x="560" y="580" as="sourcePoint" />
            <mxPoint x="450" y="690" as="targetPoint" />
          </mxGeometry>
        </mxCell>
        <mxCell id="wjT3vvSxI-A0SZft3mg_-32" value="" style="endArrow=none;html=1;rounded=0;" edge="1" parent="1">
          <mxGeometry width="50" height="50" relative="1" as="geometry">
            <mxPoint x="560" y="700" as="sourcePoint" />
            <mxPoint x="560" y="580" as="targetPoint" />
          </mxGeometry>
        </mxCell>
        <mxCell id="wjT3vvSxI-A0SZft3mg_-33" value="" style="endArrow=none;html=1;rounded=0;exitX=1;exitY=0.5;exitDx=0;exitDy=0;" edge="1" parent="1" source="wjT3vvSxI-A0SZft3mg_-27">
          <mxGeometry width="50" height="50" relative="1" as="geometry">
            <mxPoint x="540" y="700" as="sourcePoint" />
            <mxPoint x="560" y="700" as="targetPoint" />
          </mxGeometry>
        </mxCell>
        <mxCell id="wjT3vvSxI-A0SZft3mg_-34" value="NO" style="text;html=1;align=center;verticalAlign=middle;resizable=0;points=[];autosize=1;strokeColor=none;fillColor=none;" vertex="1" parent="1">
          <mxGeometry x="550" y="628" width="40" height="30" as="geometry" />
        </mxCell>
        <mxCell id="wjT3vvSxI-A0SZft3mg_-49" value="" style="edgeStyle=orthogonalEdgeStyle;rounded=0;orthogonalLoop=1;jettySize=auto;html=1;" edge="1" parent="1" source="wjT3vvSxI-A0SZft3mg_-35" target="wjT3vvSxI-A0SZft3mg_-40">
          <mxGeometry relative="1" as="geometry" />
        </mxCell>
        <mxCell id="wjT3vvSxI-A0SZft3mg_-35" value="comprar el sweater" style="rounded=0;whiteSpace=wrap;html=1;" vertex="1" parent="1">
          <mxGeometry x="365" y="890" width="120" height="60" as="geometry" />
        </mxCell>
        <mxCell id="wjT3vvSxI-A0SZft3mg_-37" value="" style="edgeStyle=orthogonalEdgeStyle;rounded=0;orthogonalLoop=1;jettySize=auto;html=1;" edge="1" parent="1" source="wjT3vvSxI-A0SZft3mg_-38" target="wjT3vvSxI-A0SZft3mg_-40">
          <mxGeometry relative="1" as="geometry" />
        </mxCell>
        <mxCell id="wjT3vvSxI-A0SZft3mg_-38" value="Obtener contacto de la tienda de televisores" style="rounded=0;whiteSpace=wrap;html=1;" vertex="1" parent="1">
          <mxGeometry x="365" y="980" width="120" height="60" as="geometry" />
        </mxCell>
        <mxCell id="wjT3vvSxI-A0SZft3mg_-39" value="" style="edgeStyle=orthogonalEdgeStyle;rounded=0;orthogonalLoop=1;jettySize=auto;html=1;" edge="1" parent="1" source="wjT3vvSxI-A0SZft3mg_-40" target="wjT3vvSxI-A0SZft3mg_-42">
          <mxGeometry relative="1" as="geometry" />
        </mxCell>
        <mxCell id="wjT3vvSxI-A0SZft3mg_-40" value="Confirmar disponibilidad del tamaÃ±o" style="rhombus;whiteSpace=wrap;html=1;" vertex="1" parent="1">
          <mxGeometry x="315" y="1060" width="220" height="140" as="geometry" />
        </mxCell>
        <mxCell id="wjT3vvSxI-A0SZft3mg_-41" value="" style="edgeStyle=orthogonalEdgeStyle;rounded=0;orthogonalLoop=1;jettySize=auto;html=1;" edge="1" parent="1" source="wjT3vvSxI-A0SZft3mg_-42" target="wjT3vvSxI-A0SZft3mg_-48">
          <mxGeometry relative="1" as="geometry" />
        </mxCell>
        <mxCell id="wjT3vvSxI-A0SZft3mg_-42" value="Ir a la tienda" style="rounded=0;whiteSpace=wrap;html=1;" vertex="1" parent="1">
          <mxGeometry x="365" y="1240" width="120" height="60" as="geometry" />
        </mxCell>
        <mxCell id="wjT3vvSxI-A0SZft3mg_-43" value="SI" style="text;html=1;align=center;verticalAlign=middle;resizable=0;points=[];autosize=1;strokeColor=none;fillColor=none;" vertex="1" parent="1">
          <mxGeometry x="425" y="1198" width="30" height="30" as="geometry" />
        </mxCell>
        <mxCell id="wjT3vvSxI-A0SZft3mg_-44" value="" style="endArrow=classic;html=1;rounded=0;entryX=1;entryY=0.5;entryDx=0;entryDy=0;" edge="1" parent="1" target="wjT3vvSxI-A0SZft3mg_-38">
          <mxGeometry width="50" height="50" relative="1" as="geometry">
            <mxPoint x="560" y="1010" as="sourcePoint" />
            <mxPoint x="450" y="1120" as="targetPoint" />
          </mxGeometry>
        </mxCell>
        <mxCell id="wjT3vvSxI-A0SZft3mg_-45" value="" style="endArrow=none;html=1;rounded=0;" edge="1" parent="1">
          <mxGeometry width="50" height="50" relative="1" as="geometry">
            <mxPoint x="560" y="1130" as="sourcePoint" />
            <mxPoint x="560" y="1010" as="targetPoint" />
          </mxGeometry>
        </mxCell>
        <mxCell id="wjT3vvSxI-A0SZft3mg_-46" value="" style="endArrow=none;html=1;rounded=0;exitX=1;exitY=0.5;exitDx=0;exitDy=0;" edge="1" parent="1" source="wjT3vvSxI-A0SZft3mg_-40">
          <mxGeometry width="50" height="50" relative="1" as="geometry">
            <mxPoint x="540" y="1130" as="sourcePoint" />
            <mxPoint x="560" y="1130" as="targetPoint" />
          </mxGeometry>
        </mxCell>
        <mxCell id="wjT3vvSxI-A0SZft3mg_-47" value="NO" style="text;html=1;align=center;verticalAlign=middle;resizable=0;points=[];autosize=1;strokeColor=none;fillColor=none;" vertex="1" parent="1">
          <mxGeometry x="550" y="1058" width="40" height="30" as="geometry" />
        </mxCell>
        <mxCell id="wjT3vvSxI-A0SZft3mg_-51" value="" style="edgeStyle=orthogonalEdgeStyle;rounded=0;orthogonalLoop=1;jettySize=auto;html=1;" edge="1" parent="1" source="wjT3vvSxI-A0SZft3mg_-48" target="wjT3vvSxI-A0SZft3mg_-50">
          <mxGeometry relative="1" as="geometry" />
        </mxCell>
        <mxCell id="wjT3vvSxI-A0SZft3mg_-48" value="comprar el televisor" style="rounded=0;whiteSpace=wrap;html=1;" vertex="1" parent="1">
          <mxGeometry x="365" y="1320" width="120" height="60" as="geometry" />
        </mxCell>
        <mxCell id="wjT3vvSxI-A0SZft3mg_-50" value="FIN" style="ellipse;whiteSpace=wrap;html=1;" vertex="1" parent="1">
          <mxGeometry x="365" y="1400" width="120" height="80" as="geometry" />
        </mxCell>
      </root>
    </mxGraphModel>
  </diagram>
</mxfile>
